<svg xmlns="http://www.w3.org/2000/svg" xmlns:xlink="http://www.w3.org/1999/xlink" version="1.1" x="0px" y="0px" width="100px" height="100px" viewBox="0 0 100 100" enable-background="new 0 0 100 100" xml:space="preserve">
<g id="Captions">
	<rect x="-192" width="185" height="99"/>
	<rect y="-36" width="100" height="30"/>
	<text transform="matrix(1 0 0 1 66 -19.5)" fill="#000000" font-family="'Helvetica'" font-size="2.4">http://thenounproject.com</text>
	<text transform="matrix(1 0 0 1 7.166 -24.5)"><tspan x="0" y="0" fill="#000000" font-family="'Helvetica-Bold'" font-size="6.1578">The Noun Project</tspan><tspan x="1.12" y="4.8" fill="#000000" font-family="'Helvetica-Bold'" font-size="4">Icon Template</tspan></text>
	<text transform="matrix(1 0 0 1 -178.5 10.5)" fill="#000000" font-family="'Helvetica-Bold'" font-size="6.1578">Reminders</text>
	<line fill="#000000" stroke="#FFFFFF" stroke-miterlimit="10" x1="8" y1="-14.5" x2="18" y2="-14.5"/>
	<line fill="#000000" stroke="#FFFFFF" stroke-miterlimit="10" x1="-179" y1="16.5" x2="-162" y2="16.5"/>
	<g>
		<g>
			<g>
				<rect x="-170.802" y="31.318" fill="#000000" width="8.721" height="8.642"/>
				<path fill="#000000" d="M-164.455,42.312h4.747v-4.703h-4.747V42.312z M-159.266,42.749h-5.63V37.17h5.63V42.749      L-159.266,42.749z M-166.221,44.062h8.279v-8.203h-8.279V44.062L-166.221,44.062z M-157.5,44.5h-9.163v-9.079h9.163V44.5      L-157.5,44.5z"/>
				<polygon fill="#000000" points="-166.149,44.133 -166.292,43.991 -158.013,35.787 -157.871,35.929     "/>
			</g>
		</g>
	</g>
	<rect x="-179" y="58" fill="none" width="35" height="32.5"/>
	<text transform="matrix(1 0 0 1 -179 60.1572)"><tspan x="0" y="0" fill="#000000" font-family="'Helvetica-Bold'" font-size="3">Strokes</tspan><tspan x="0" y="5" fill="#000000" font-family="'Helvetica'" font-size="2.4">Try to keep strokes at 4px</tspan><tspan x="0" y="10" fill="#000000" font-family="'Helvetica'" font-size="2.4">Minimum stroke weight is 2px</tspan><tspan x="0" y="14.5" fill="#000000" font-family="'Helvetica'" font-size="2.4">For thicker strokes use even </tspan><tspan x="0" y="17.5" fill="#000000" font-family="'Helvetica'" font-size="2.4">numbers: 6px, 8px etc.</tspan><tspan x="0" y="22" fill="#000000" font-family="'Helvetica-Bold'" font-size="2.4">Remember to expand strokes </tspan><tspan x="0" y="25" fill="#000000" font-family="'Helvetica-Bold'" font-size="2.4">before saving as an SVG </tspan></text>
	<rect x="-136.5" y="58" fill="none" width="35" height="32.5"/>
	<text transform="matrix(1 0 0 1 -136.5 60.1572)"><tspan x="0" y="0" fill="#000000" font-family="'Helvetica-Bold'" font-size="3">Size</tspan><tspan x="0" y="5" fill="#000000" font-family="'Helvetica'" font-size="2.4">Cannot be wider or taller than </tspan><tspan x="0" y="8.5" fill="#000000" font-family="'Helvetica'" font-size="2.4">100px (artboard size)</tspan><tspan x="0" y="13.5" fill="#000000" font-family="'Helvetica'" font-size="2.4">Scale your icon to fill as much of </tspan><tspan x="0" y="16.5" fill="#000000" font-family="'Helvetica'" font-size="2.4">the artboard as possible</tspan></text>
	<rect x="-94" y="58" fill="none" width="35" height="32.5"/>
	<text transform="matrix(1 0 0 1 -94 60.1572)"><tspan x="0" y="0" fill="#000000" font-family="'Helvetica-Bold'" font-size="3">Ungroup</tspan><tspan x="0" y="5" fill="#000000" font-family="'Helvetica'" font-size="2.4">If your design has more than one </tspan><tspan x="0" y="8" fill="#000000" font-family="'Helvetica'" font-size="2.4">shape, make sure to ungroup</tspan></text>
	<rect x="-50" y="58" fill="none" width="35" height="32.5"/>
	<text transform="matrix(1 0 0 1 -50 60.1572)"><tspan x="0" y="0" fill="#000000" font-family="'Helvetica-Bold'" font-size="3">Save as</tspan><tspan x="0" y="5" fill="#000000" font-family="'Helvetica'" font-size="2.4">Save as .SVG and make sure </tspan><tspan x="0" y="8" fill="#000000" font-family="'Helvetica'" font-size="2.4">&#8220;Use Artboards&#8221; is checked</tspan></text>
	<text transform="matrix(1.0074 0 0 1 -125.542 30.5933)" fill="#000000" font-family="'Helvetica'" font-size="2.5731">100px</text>
	<text transform="matrix(1.0074 0 0 1 -41 39)" fill="#000000" font-family="'Helvetica-Bold'" font-size="5.1462">.SVG</text>
	<rect x="-126.514" y="34.815" fill="#000000" width="10.261" height="10.185"/>
	<rect x="-126.477" y="31.766" fill="#000000" width="0.522" height="2.337"/>
	<rect x="-116.812" y="31.766" fill="#000000" width="0.523" height="2.337"/>
	<rect x="-127" y="32.337" fill="#000000" width="11.233" height="0.572"/>
	<g>
		<rect x="-83.805" y="33.844" fill="#000000" width="10.305" height="10.156"/>
		<rect x="-76.809" y="28.707" fill="#000000" width="3.308" height="3.261"/>
	</g>
	<rect x="-178.5" y="22.5" fill="#000000" stroke="#FFFFFF" stroke-miterlimit="10" width="30" height="30"/>
	<rect x="-136.5" y="22.5" fill="#000000" stroke="#FFFFFF" stroke-miterlimit="10" width="30" height="30"/>
	<rect x="-93.5" y="22.5" fill="#000000" stroke="#FFFFFF" stroke-miterlimit="10" width="30" height="30"/>
	<rect x="-49.5" y="22.5" fill="#000000" stroke="#FFFFFF" stroke-miterlimit="10" width="30" height="30"/>
</g>
<g id="Your_Icon">
	<path fill="#000000" d="M172.65,24.498c0-14.126-10.847-20.989-33.006-20.989c-13.116,0-22.004,1.69-27.265,5.329   c-4.765,3.302-7.38,8.133-7.38,15.66v31.911c0,8.025,8.485,16.833,15.55,24.603C125.679,86.652,131,91.981,131,95.21V96h15v-0.79   c0-3.398,5.787-9.681,11.396-15.76c7.457-8.08,15.178-16.433,15.15-23.041c-0.016-3.891,0-8.156,0.042-13.108   C172.643,37.872,172.65,31.708,172.65,24.498z"/>
	<path d="M58.39,97.991H40.375V95.21c0-2.422-4.647-7.516-8.748-12.011l-1.725-1.894c-7.055-7.751-15.051-16.536-15.051-24.896   V24.498c0-7.813,2.495-13.181,7.85-16.893c5.519-3.818,14.398-5.596,27.944-5.596c22.896,0,34.506,7.566,34.506,22.489   c0,7.647-0.023,13.626-0.075,18.817c-0.045,5.343-0.07,9.397-0.056,13.088c0.029,7.153-7.827,15.668-15.426,23.902l-0.39,0.422   C64.386,85.948,58.39,92.446,58.39,95.21V97.991z M43.369,94.991h12.026c0.201-3.942,5.743-9.947,11.604-16.299l0.389-0.422   c7.205-7.808,14.655-15.881,14.631-21.855c-0.015-3.706,0.011-7.771,0.056-13.127c0.052-5.183,0.075-11.153,0.075-18.79   c0-13.114-10.306-19.489-31.506-19.489c-12.73,0-21.312,1.656-26.236,5.062c-4.535,3.143-6.558,7.593-6.558,14.427v31.911   c0,7.199,7.581,15.528,14.27,22.877l1.723,1.892C38.854,86.671,43.196,91.43,43.369,94.991z"/>
	<path d="M46.791,28.31c0.131-0.047,0.249-0.118,0.368-0.204c0.768-0.556,0.937-1.625,0.386-2.387   c-6.992-9.603-13.672-9.339-18.473-6.676c-3.664,2.028-4.683,6.01-4.19,7.604c0.278,0.903,0.759,1.541,1.168,1.376   c0.539-0.22,0.286-1.074,0.42-2.013c0.256-1.766,1.04-3.571,3.302-4.817c3.534-1.96,9.325-1.257,14.996,6.536   C45.245,28.375,46.08,28.598,46.791,28.31"/>
	<path d="M70.947,19.043c-4.811-2.664-11.483-2.927-18.476,6.676c-0.549,0.758-0.384,1.82,0.368,2.379   c0.102,16.578,5.741,20.168,8.788,22.105c1.045,0.658,1.593,1.029,1.593,1.526c0,1.254-5.144,3.993-10.239,3.993   c-1.94,0-3.544-0.526-4.645-1.326C47.072,53.472,46.432,52,46.432,50h-1.141c0,3,0.797,4.169,2.371,5.312   c1.312,0.96,3.104,1.502,5.319,1.502c4.751,0,11.379-2.565,11.379-5.111c0-1.148-0.938-1.723-2.122-2.48   c-2.844-1.802-8.09-5.141-8.256-20.822c0.483-0.035,0.949-0.252,1.256-0.676c5.681-7.793,11.468-8.494,15.007-6.534   c2.257,1.246,3.045,3.052,3.3,4.818c0.135,0.939-0.115,1.794,0.423,2.014c0.404,0.164,0.887-0.473,1.161-1.376   C75.626,25.053,74.609,21.071,70.947,19.043z"/>
	<path d="M70.26,55.989c-0.752-0.578-1.823-0.202-2.403,0.544L63.017,63h-8.773l-2.377-4.352c-0.363-0.633-1.066-1.062-1.745-0.955   c-0.68-0.106-1.385,0.384-1.751,1.017L45.996,63h-8.771l-4.839-6.467c-0.581-0.746-1.657-0.999-2.405-0.422   c-0.741,0.58-0.874,1.594-0.297,2.339l5.365,6.886C35.367,65.753,35.866,66,36.39,66h10.597c0.613,0,1.181-0.359,1.481-0.885   l1.648-2.878l1.65,2.886C52.075,65.648,52.646,66,53.25,66h10.595c0.529,0,1.025-0.277,1.354-0.695l5.359-6.898   C71.133,57.661,71.001,56.569,70.26,55.989z"/>
	<path d="M36.929,76.674c-0.194,0-0.394-0.103-0.498-0.294L22.212,50.725c0-0.004,0-0.006-0.007-0.006   c-0.148-0.274-0.052-0.623,0.225-0.78c0.277-0.149,0.625-0.05,0.777,0.226c3.752,6.772,11.403,5.398,13.659,4.817   c3.958-1.022,6.626-3.176,6.626-4.538c0-0.317,0.255-0.574,0.568-0.574s0.571,0.257,0.571,0.574c0,2.114-3.216,4.541-7.478,5.64   c-1.885,0.49-7.213,1.478-11.475-1.459l11.75,21.202c0.158,0.276,0.054,0.621-0.216,0.776   C37.12,76.652,37.027,76.674,36.929,76.674"/>
	<path d="M63.128,76.674c-0.09,0-0.187-0.021-0.276-0.069c-0.267-0.155-0.374-0.5-0.218-0.776l11.782-21.254   c-4.119,2.846-9.771,2.533-14.197,0.584c-0.288-0.124-0.421-0.463-0.288-0.749c0.121-0.292,0.457-0.42,0.751-0.292   c5.411,2.375,12.783,2.161,16.171-3.95v-0.002c0.156-0.275,0.509-0.375,0.777-0.226c0.281,0.157,0.375,0.505,0.227,0.78   L63.627,76.38C63.521,76.571,63.33,76.674,63.128,76.674"/>
	<path d="M34.428,30.765c-2.829,0-7.435,0.431-8.186,1.979l-1.165-0.747l-0.625,0.958l0.7,0.45l-0.636,0.513l0.718,0.885   l1.018-0.819c0.583,1.672,3.077,1.673,4.646,1.673c0.506,0,1.048-0.01,1.618-0.022c1.269-0.021,2.706-0.018,3.97,0.01   c0.599,0.012,1.168,0.03,1.699,0.03c1.698,0,4.543,0,4.543-2.484C42.729,31.274,37.507,30.765,34.428,30.765z"/>
	<path d="M75.652,32.955l-0.626-0.958l-1.248,0.801c-0.661-1.591-5.351-2.033-8.21-2.033c-3.084,0-8.293,0.51-8.293,2.422   c0,2.489,2.835,2.489,4.529,2.489c0.538,0,1.103-0.019,1.705-0.03c1.262-0.032,2.701-0.033,3.977-0.011   c0.562,0.012,1.1,0.022,1.616,0.022c1.155,0,2.345-0.044,3.223-0.365c0.872-0.314,1.265-0.851,1.43-1.387l1.115,0.898l0.718-0.885   l-0.636-0.513L75.652,32.955z"/>
	<path d="M63.936,68.215H35.998c-1.711,0-3.214-2.562-3.385-2.854l0.993-0.562c0.425,0.743,1.565,2.276,2.392,2.276h27.938   c0.673,0,1.682-1.347,2.157-2.259l1.013,0.525C66.854,65.823,65.534,68.215,63.936,68.215"/>
	<rect x="46.29" y="68.978" width="7.132" height="1.137"/>
	<path d="M44.853,72.824c0-1.779,9.345-1.829,9.345,0c0,0-2.926,12.877-2.926,21.387H47.85   C47.85,85.751,44.853,72.824,44.853,72.824"/>
</g>
</svg>