<?xml version="1.0" encoding="UTF-8" standalone="no"?>
<!-- Created with Inkscape (http://www.inkscape.org/) -->

<svg
   xmlns:dc="http://purl.org/dc/elements/1.1/"
   xmlns:cc="http://creativecommons.org/ns#"
   xmlns:rdf="http://www.w3.org/1999/02/22-rdf-syntax-ns#"
   xmlns:svg="http://www.w3.org/2000/svg"
   xmlns="http://www.w3.org/2000/svg"
   xmlns:sodipodi="http://sodipodi.sourceforge.net/DTD/sodipodi-0.dtd"
   xmlns:inkscape="http://www.inkscape.org/namespaces/inkscape"
   width="18.963207"
   height="17.772863"
   id="svg3009"
   version="1.1"
   inkscape:version="0.48.2 r9819"
   sodipodi:docname="pencil.svg">
  <defs
     id="defs3011" />
  <sodipodi:namedview
     id="base"
     pagecolor="#ffffff"
     bordercolor="#666666"
     borderopacity="1.0"
     inkscape:pageopacity="0.0"
     inkscape:pageshadow="2"
     inkscape:zoom="5.12"
     inkscape:cx="10.732461"
     inkscape:cy="23.63619"
     inkscape:current-layer="g3018"
     showgrid="true"
     inkscape:grid-bbox="true"
     inkscape:document-units="px"
     inkscape:window-width="1024"
     inkscape:window-height="578"
     inkscape:window-x="-8"
     inkscape:window-y="-8"
     inkscape:window-maximized="1"
     fit-margin-top="1.1"
     fit-margin-left="1.1"
     fit-margin-right="1.1"
     fit-margin-bottom="0" />
  <metadata
     id="metadata3014">
    <rdf:RDF>
      <cc:Work
         rdf:about="">
        <dc:format>image/svg+xml</dc:format>
        <dc:type
           rdf:resource="http://purl.org/dc/dcmitype/StillImage" />
        <dc:title></dc:title>
      </cc:Work>
    </rdf:RDF>
  </metadata>
  <g
     id="layer1"
     inkscape:label="Layer 1"
     inkscape:groupmode="layer"
     transform="translate(-6.7869894,-7.5653706)">
    <g
       id="g3018"
       transform="matrix(0.12626263,0,0,0.12626263,-22.100259,-25.54548)"
       inkscape:transform-center-x="4.672033">
	<rect
   id="rect3020"
   height="305"
   width="275"
   y="264"
   x="163"
   style="fill:none" />

	<path
   id="path3022"
   d="m 271.699,394.799 -33.599,8.2 -0.601,-0.6 8.8,-33.6 78.799,-78.399 c 1.4,-0.4 4.8,-1.4 9.6,-0.4 l -83.598,83.6 -2.399,8.8 9.6,9.6 9,-2.4 4,-3.8 0.399,-9 -6.399,-6.4 76.599,-76.599 c 1.2,1 1.2,1 2.4,2.4 11.399,11.2 6.199,19.8 6.199,19.8 l -78.8,78.798 z m 92.4,-92.398 -7.4,7.4 c 0,0 5.6,-8.6 -6,-19.8 -10.199,-10.2 -19.8,-5.8 -19.8,-5.8 l 7.8,-7.8 c 7,-7.2 19.2,-7.2 26,-0.4 7.999,7.4 6.999,18.8 -0.6,26.4 z"
   inkscape:connector-curvature="0"
   style="fill:#000000" />

</g>
  </g>
</svg>
