<?xml version="1.0" encoding="UTF-8" standalone="no"?>
<!-- Created with Inkscape (http://www.inkscape.org/) -->

<svg
   xmlns:dc="http://purl.org/dc/elements/1.1/"
   xmlns:cc="http://creativecommons.org/ns#"
   xmlns:rdf="http://www.w3.org/1999/02/22-rdf-syntax-ns#"
   xmlns:svg="http://www.w3.org/2000/svg"
   xmlns="http://www.w3.org/2000/svg"
   xmlns:sodipodi="http://sodipodi.sourceforge.net/DTD/sodipodi-0.dtd"
   xmlns:inkscape="http://www.inkscape.org/namespaces/inkscape"
   width="210mm"
   height="297mm"
   id="svg2"
   version="1.1"
   inkscape:version="0.48.2 r9819"
   sodipodi:docname="rotate_image.svg">
  <defs
     id="defs4">
    <inkscape:perspective
       sodipodi:type="inkscape:persp3d"
       inkscape:vp_x="0 : 0.5 : 1"
       inkscape:vp_y="0 : 1000 : 0"
       inkscape:vp_z="1 : 0.5 : 1"
       inkscape:persp3d-origin="0.5 : 0.33333333 : 1"
       id="perspective3635" />
    <inkscape:perspective
       id="perspective10"
       inkscape:persp3d-origin="372.04724 : 350.78739 : 1"
       inkscape:vp_z="744.09448 : 526.18109 : 1"
       inkscape:vp_y="0 : 1000 : 0"
       inkscape:vp_x="0 : 526.18109 : 1"
       sodipodi:type="inkscape:persp3d" />
    <marker
       style="overflow:visible"
       id="Arrow2Mstart"
       refX="0"
       refY="0"
       orient="auto"
       inkscape:stockid="Arrow2Mstart">
      <path
         inkscape:connector-curvature="0"
         transform="scale(0.6,0.6)"
         d="M 8.7185878,4.0337352 -2.2072895,0.01601326 8.7185884,-4.0017078 c -1.7454984,2.3720609 -1.7354408,5.6174519 -6e-7,8.035443 z"
         style="font-size:12px;fill-rule:evenodd;stroke-width:0.625;stroke-linejoin:round"
         id="path3676" />
    </marker>
    <marker
       style="overflow:visible"
       id="Arrow1Sstart"
       refX="0"
       refY="0"
       orient="auto"
       inkscape:stockid="Arrow1Sstart">
      <path
         inkscape:connector-curvature="0"
         transform="matrix(0.2,0,0,0.2,1.2,0)"
         style="fill-rule:evenodd;stroke:#000000;stroke-width:1pt;marker-start:none"
         d="M 0,0 5,-5 -12.5,0 5,5 0,0 z"
         id="path3664" />
    </marker>
    <marker
       style="overflow:visible"
       id="Arrow2Lstart"
       refX="0"
       refY="0"
       orient="auto"
       inkscape:stockid="Arrow2Lstart">
      <path
         inkscape:connector-curvature="0"
         transform="matrix(1.1,0,0,1.1,1.1,0)"
         d="M 8.7185878,4.0337352 -2.2072895,0.01601326 8.7185884,-4.0017078 c -1.7454984,2.3720609 -1.7354408,5.6174519 -6e-7,8.035443 z"
         style="font-size:12px;fill-rule:evenodd;stroke-width:0.625;stroke-linejoin:round"
         id="path3670" />
    </marker>
    <marker
       style="overflow:visible"
       id="Arrow2Sstart"
       refX="0"
       refY="0"
       orient="auto"
       inkscape:stockid="Arrow2Sstart">
      <path
         inkscape:connector-curvature="0"
         transform="matrix(0.3,0,0,0.3,-0.69,0)"
         d="M 8.7185878,4.0337352 -2.2072895,0.01601326 8.7185884,-4.0017078 c -1.7454984,2.3720609 -1.7354408,5.6174519 -6e-7,8.035443 z"
         style="font-size:12px;fill-rule:evenodd;stroke-width:0.625;stroke-linejoin:round"
         id="path3682" />
    </marker>
    <marker
       style="overflow:visible"
       id="Arrow1Send"
       refX="0"
       refY="0"
       orient="auto"
       inkscape:stockid="Arrow1Send">
      <path
         inkscape:connector-curvature="0"
         transform="matrix(-0.2,0,0,-0.2,-1.2,0)"
         style="fill-rule:evenodd;stroke:#000000;stroke-width:1pt;marker-start:none"
         d="M 0,0 5,-5 -12.5,0 5,5 0,0 z"
         id="path3667" />
    </marker>
    <marker
       style="overflow:visible"
       id="TriangleInL"
       refX="0"
       refY="0"
       orient="auto"
       inkscape:stockid="TriangleInL">
      <path
         inkscape:connector-curvature="0"
         transform="scale(-0.8,-0.8)"
         style="fill-rule:evenodd;stroke:#000000;stroke-width:1pt;marker-start:none"
         d="m 5.77,0 -8.65,5 0,-10 8.65,5 z"
         id="path3786" />
    </marker>
    <marker
       style="overflow:visible"
       id="TriangleInS"
       refX="0"
       refY="0"
       orient="auto"
       inkscape:stockid="TriangleInS">
      <path
         inkscape:connector-curvature="0"
         transform="scale(-0.2,-0.2)"
         style="fill-rule:evenodd;stroke:#000000;stroke-width:1pt;marker-start:none"
         d="m 5.77,0 -8.65,5 0,-10 8.65,5 z"
         id="path3792" />
    </marker>
    <marker
       style="overflow:visible"
       id="TriangleOutS"
       refX="0"
       refY="0"
       orient="auto"
       inkscape:stockid="TriangleOutS">
      <path
         inkscape:connector-curvature="0"
         transform="scale(0.2,0.2)"
         style="fill-rule:evenodd;stroke:#000000;stroke-width:1pt;marker-start:none"
         d="m 5.77,0 -8.65,5 0,-10 8.65,5 z"
         id="path3801" />
    </marker>
  </defs>
  <sodipodi:namedview
     id="base"
     pagecolor="#ffffff"
     bordercolor="#666666"
     borderopacity="1.0"
     inkscape:pageopacity="0.0"
     inkscape:pageshadow="2"
     inkscape:zoom="2.9790801"
     inkscape:cx="351.42858"
     inkscape:cy="674.1039"
     inkscape:document-units="px"
     inkscape:current-layer="layer1-9"
     showgrid="false"
     inkscape:window-width="1920"
     inkscape:window-height="1018"
     inkscape:window-x="-8"
     inkscape:window-y="-8"
     inkscape:window-maximized="1" />
  <metadata
     id="metadata7">
    <rdf:RDF>
      <cc:Work
         rdf:about="">
        <dc:format>image/svg+xml</dc:format>
        <dc:type
           rdf:resource="http://purl.org/dc/dcmitype/StillImage" />
        <dc:title></dc:title>
      </cc:Work>
    </rdf:RDF>
  </metadata>
  <g
     inkscape:label="Ebene 1"
     inkscape:groupmode="layer"
     id="layer1">
    <g
       transform="translate(210.19638,-76.075505)"
       id="layer1-9"
       inkscape:label="Layer 1">
      <path
         inkscape:connector-curvature="0"
         inkscape:export-ydpi="103.18156"
         inkscape:export-xdpi="103.18156"
         inkscape:export-filename="/Users/tomkinsc/Dropbox/TakeItApart/icons/rotate.png"
         sodipodi:nodetypes="ccccccc"
         d="m 166.10205,532.43947 c -1.66585,-2.66125 -4.76148,-1.60453 -4.55877,1.97593 l 0.55819,55.30914 c 0.0276,2.73857 1.50856,4.92855 3.32043,4.91027 l 23.36299,0.0159 c 2.55558,-0.70206 3.07957,-2.77557 1.71289,-5.84215 l -24.39573,-56.36914 z"
         style="fill:#000000;fill-opacity:1;stroke:none"
         id="path5880" />
      <path
         inkscape:connector-curvature="0"
         inkscape:export-ydpi="103.18156"
         inkscape:export-xdpi="103.18156"
         inkscape:export-filename="/Users/tomkinsc/Dropbox/TakeItApart/icons/rotate.png"
         id="path3643"
         d="m 151.61057,564.35569 c 0.34806,0.0168 0.6898,0.0678 1.01821,0.16466 1.31359,0.38741 2.26938,1.53737 2.6574,3.01546 l 0.0334,0.13455 -1.9e-4,0.14411 -0.27441,22.63054 c -1e-5,0.003 0,0.006 -2e-5,0.01 -0.006,1.29637 -0.79941,2.39591 -1.86793,3.10086 -1.0712,0.70673 -2.45719,1.09687 -3.96938,1.09491 l -53.610779,-0.0697 1e-5,-0.005 c -2.01793,0.076 -3.63301,-0.80324 -4.18125,-2.23441 -0.55269,-1.44279 0.17373,-3.15778 1.77319,-4.1338 l 0.0674,-0.0432 0.0769,-0.0287 54.889779,-23.0159 c 0.003,-0.002 0.006,-0.003 0.01,-0.005 1.2105,-0.52193 2.33685,-0.81002 3.37809,-0.75941 z m -0.0988,2.08954 c -0.60423,-0.0197 -1.43912,0.14435 -2.46513,0.58767 l -0.005,-1e-5 -0.005,0.005 -54.798459,22.97759 c -0.9527,0.5983 -1.03472,1.17073 -0.87637,1.58412 0.16098,0.4202 0.75795,0.96105 2.18939,0.89635 l 0.024,3e-5 0.024,4e-5 53.610779,0.0697 c 1.14228,10e-4 2.15362,-0.31351 2.81603,-0.75053 0.66239,-0.43702 0.93792,-0.91707 0.93852,-1.37267 l 1e-5,-0.005 1e-5,-0.01 0.26942,-22.47682 c -0.26173,-0.90734 -0.62765,-1.25976 -1.19911,-1.42829 -0.14954,-0.0441 -0.3221,-0.071 -0.52351,-0.0776 z"
         style="font-size:medium;font-style:normal;font-variant:normal;font-weight:normal;font-stretch:normal;text-indent:0;text-align:start;text-decoration:none;line-height:normal;letter-spacing:normal;word-spacing:normal;text-transform:none;direction:ltr;block-progression:tb;writing-mode:lr-tb;text-anchor:start;color:#000000;fill:#000000;fill-opacity:1;stroke:none;stroke-width:13.55317307;marker:none;visibility:visible;display:inline;overflow:visible;enable-background:accumulate;font-family:Bitstream Vera Sans;-inkscape-font-specification:Bitstream Vera Sans" />
      <path
         inkscape:connector-curvature="0"
         inkscape:export-ydpi="103.18156"
         inkscape:export-xdpi="103.18156"
         inkscape:export-filename="/Users/tomkinsc/Dropbox/TakeItApart/icons/rotate.png"
         id="path3647"
         d="m 141.14457,536.26608 c -13.63462,-0.57786 -25.32186,9.66946 -26.44962,23.39654 -0.0185,0.22422 -0.017,0.46036 -0.0311,0.68538 l 4.64193,0.0311 -8.00654,13.73885 -7.91308,-13.80116 4.33038,0.0311 c 0.0145,-0.41579 0.0282,-0.83125 0.0623,-1.24615 1.41866,-17.26804 16.2589,-30.30333 33.39693,-29.72078 z"
         style="font-size:medium;font-style:normal;font-variant:normal;font-weight:normal;font-stretch:normal;text-indent:0;text-align:start;text-decoration:none;line-height:normal;letter-spacing:normal;word-spacing:normal;text-transform:none;direction:ltr;block-progression:tb;writing-mode:lr-tb;text-anchor:start;color:#000000;fill:#000000;fill-opacity:1;stroke:none;stroke-width:11.16800022;marker:none;visibility:visible;display:inline;overflow:visible;enable-background:accumulate;font-family:Bitstream Vera Sans;-inkscape-font-specification:Bitstream Vera Sans"
         inkscape:transform-center-x="-25.577309"
         inkscape:transform-center-y="24.51811"
         sodipodi:nodetypes="cccccccccc" />
    </g>
  </g>
</svg>
