<?xml version="1.0" encoding="UTF-8" standalone="no"?>
<!-- Generator: Adobe Illustrator 15.1.0, SVG Export Plug-In . SVG Version: 6.00 Build 0)  -->

<svg
   xmlns:dc="http://purl.org/dc/elements/1.1/"
   xmlns:cc="http://creativecommons.org/ns#"
   xmlns:rdf="http://www.w3.org/1999/02/22-rdf-syntax-ns#"
   xmlns:svg="http://www.w3.org/2000/svg"
   xmlns="http://www.w3.org/2000/svg"
   xmlns:sodipodi="http://sodipodi.sourceforge.net/DTD/sodipodi-0.dtd"
   xmlns:inkscape="http://www.inkscape.org/namespaces/inkscape"
   version="1.1"
   id="Layer_1"
   x="0px"
   y="0px"
   width="100px"
   height="100px"
   viewBox="0 0 100 100"
   enable-background="new 0 0 100 100"
   xml:space="preserve"
   inkscape:version="0.48.2 r9819"
   sodipodi:docname="search.svg"><metadata
   id="metadata3020"><rdf:RDF><cc:Work
       rdf:about=""><dc:format>image/svg+xml</dc:format><dc:type
         rdf:resource="http://purl.org/dc/dcmitype/StillImage" /></cc:Work></rdf:RDF></metadata><defs
   id="defs3018" /><sodipodi:namedview
   pagecolor="#ffffff"
   bordercolor="#666666"
   borderopacity="1"
   objecttolerance="10"
   gridtolerance="10"
   guidetolerance="10"
   inkscape:pageopacity="0"
   inkscape:pageshadow="2"
   inkscape:window-width="640"
   inkscape:window-height="480"
   id="namedview3016"
   showgrid="false"
   showguides="true"
   inkscape:guide-bbox="true"
   inkscape:zoom="2.36"
   inkscape:cx="50"
   inkscape:cy="50"
   inkscape:window-x="303"
   inkscape:window-y="17"
   inkscape:window-maximized="0"
   inkscape:current-layer="Layer_1" />
<path
   d="m 11.104047,11.105 c 14.807,-14.807 38.812,-14.807 53.619,0 14.807,14.806 14.807,38.812 0,53.619 -14.807,14.807 -38.812,14.807 -53.619,0 -14.8070002,-14.807 -14.8070002,-38.812 0,-53.619 z m 4.233,49.387 c 12.469,12.468 32.684,12.468 45.153,0 12.468,-12.469 12.468,-32.685 0,-45.153 -12.469,-12.468 -32.685,-12.469 -45.153,0 -12.4680002,12.469 -12.4680002,32.683 0,45.153 z"
   id="path3012"
   inkscape:connector-curvature="0" />
<rect
   x="-5.988471"
   y="95.523621"
   transform="matrix(-0.70710678,0.70710678,0.70710678,0.70710678,0,0)"
   width="11.972885"
   height="39.909618"
   id="rect3014" />
</svg>